<svg xmlns="http://www.w3.org/2000/svg" width="310.866" height="46.532" viewBox="0 0 310.866 46.532">
  <g id="Groupe_351" data-name="Groupe 351" transform="translate(-1841.839 -5020.296)">
    <path id="Tracé_251" data-name="Tracé 251" d="M1845.252,5042.427h-3.413v-5.719h3.413V5029.7a9.117,9.117,0,0,1,2.329-6.525,8.6,8.6,0,0,1,6.571-2.468,11.566,11.566,0,0,1,2.951.415,8.226,8.226,0,0,1,2.722,1.245l-2.722,4.658a2.766,2.766,0,0,0-2.259-1.015,2.892,2.892,0,0,0-2.283.969,4.284,4.284,0,0,0-.853,2.905v6.824h6.088v5.719h-6.088v14.527h-6.456Z" transform="translate(0 -0.271)" fill="#244956"/>
    <path id="Tracé_252" data-name="Tracé 252" d="M1907.557,5068.216a12.533,12.533,0,0,1,2.974-2.006,6.148,6.148,0,0,1,2.4-.715l-.323,6.457a5.124,5.124,0,0,0-.784-.047,5.882,5.882,0,0,0-3.413,1.015,6.714,6.714,0,0,0-2.26,2.605,7.27,7.27,0,0,0-.783,3.251v7.887h-6.411v-20.153h5.81l.507,4.612a9.978,9.978,0,0,1,2.283-2.905" transform="translate(-37.886 -29.98)" fill="#244956"/>
    <path id="Tracé_253" data-name="Tracé 253" d="M1968.554,5068.507v20.154H1962.7l-.461-3.229a7.935,7.935,0,0,1-2.976,3.066,8.681,8.681,0,0,1-4.5,1.13,6.533,6.533,0,0,1-4.611-1.706,5.788,5.788,0,0,1-1.891-4.335v-15.081h6.456v12.684q.139,2.951,2.721,2.951a3.837,3.837,0,0,0,3.39-2.075,10.129,10.129,0,0,0,1.268-5.351v-8.208Z" transform="translate(-70.591 -31.978)" fill="#244956"/>
    <path id="Tracé_254" data-name="Tracé 254" d="M2040.868,5066.51v20.153a8.816,8.816,0,0,1-1.637,5.188,11.04,11.04,0,0,1-4.428,3.643,14.045,14.045,0,0,1-6.065,1.314,14.29,14.29,0,0,1-4.357-.6,12.529,12.529,0,0,1-3-1.338,31.087,31.087,0,0,1-2.7-2.029l3.781-4.428a13.508,13.508,0,0,0,2.744,2.03,7.161,7.161,0,0,0,3.436.738,6.742,6.742,0,0,0,4.1-1.222,3.974,3.974,0,0,0,1.66-3.39v-2.859a6.664,6.664,0,0,1-2.837,2.537,10.291,10.291,0,0,1-4.68.968,9.592,9.592,0,0,1-5.05-1.406,10.333,10.333,0,0,1-3.713-3.874,11.464,11.464,0,0,1,.069-11.045,10.778,10.778,0,0,1,3.828-3.965,9.554,9.554,0,0,1,5-1.43,12.736,12.736,0,0,1,4.428.715,7.138,7.138,0,0,1,2.951,1.868l.507-1.568Zm-6.456,12.405v-4.935a5.039,5.039,0,0,0-2.145-2.352,6.689,6.689,0,0,0-3.436-.876,5.478,5.478,0,0,0-3.966,1.568,5.3,5.3,0,0,0-1.614,3.967,5.524,5.524,0,0,0,1.614,4.035,5.354,5.354,0,0,0,3.966,1.637,5.9,5.9,0,0,0,5.58-3.044" transform="translate(-116.018 -29.981)" fill="#244956"/>
    <path id="Tracé_255" data-name="Tracé 255" d="M2119.844,5066.51v20.153h-6.457v-2.49a9.041,9.041,0,0,1-6.733,3.043,10.059,10.059,0,0,1-7.264-2.675q-2.791-2.673-2.79-7.933a12.062,12.062,0,0,1,1.36-5.833,10.076,10.076,0,0,1,3.62-3.9,9.11,9.11,0,0,1,4.844-1.383,9.349,9.349,0,0,1,4.242.807,8.7,8.7,0,0,1,2.768,2.282l.414-2.075Zm-6.457,12.405v-4.935a4.715,4.715,0,0,0-1.913-2.352,5.8,5.8,0,0,0-3.206-.876,4.831,4.831,0,0,0-3.621,1.568,5.514,5.514,0,0,0-1.5,3.967,5.781,5.781,0,0,0,.739,2.881,5.466,5.466,0,0,0,1.959,2.053,5.034,5.034,0,0,0,2.652.738,5.1,5.1,0,0,0,4.888-3.044" transform="translate(-168.984 -29.981)" fill="#244956"/>
    <rect id="Rectangle_79" data-name="Rectangle 79" width="6.457" height="36.386" transform="translate(1955.195 5020.296)" fill="#244956"/>
    <rect id="Rectangle_80" data-name="Rectangle 80" width="6.457" height="36.386" transform="translate(1965.986 5020.296)" fill="#244956"/>
    <path id="Tracé_256" data-name="Tracé 256" d="M2256.093,5097.4h-5.153a5.273,5.273,0,0,0-5.273,5.272v5.153h5.47a4.955,4.955,0,0,0,4.956-4.955Z" transform="translate(-267.86 -51.144)" fill="#9cd5b9"/>
    <g id="Groupe_348" data-name="Groupe 348" transform="translate(1993.597 5038.542)">
      <path id="Tracé_257" data-name="Tracé 257" d="M2296.128,5074.485v18.107h-3.565v-18.107Z" transform="translate(-2292.563 -5074.485)" fill="#244956"/>
      <path id="Tracé_258" data-name="Tracé 258" d="M2327.674,5074.485l10.333,14.321,10.316-14.321h3.3v18.107h-3.565v-11.977l-8.565,11.977h-2.97l-8.564-11.977v11.977h-3.565v-18.107Z" transform="translate(-2313.675 -5074.485)" fill="#244956"/>
      <path id="Tracé_259" data-name="Tracé 259" d="M2445,5074.485a5.07,5.07,0,0,1,3.316,1.15,4.879,4.879,0,0,1,1.611,3.741v2.188a4.877,4.877,0,0,1-1.611,3.741,5.073,5.073,0,0,1-3.316,1.15h-14.941v6.136h-3.565v-18.107Zm-14.941,9.028h14.494a2.064,2.064,0,0,0,1.3-.409,1.529,1.529,0,0,0,.509-1.361V5079.2a1.527,1.527,0,0,0-.509-1.36,2.058,2.058,0,0,0-1.3-.41h-14.494Z" transform="translate(-2381.397 -5074.485)" fill="#244956"/>
      <path id="Tracé_260" data-name="Tracé 260" d="M2519.044,5074.485l12.948,18.107h-4.384l-3-4.188H2510.5l-3,4.188h-4.385l12.948-18.107Zm-6.436,10.977h9.9l-4.951-6.923Z" transform="translate(-2432.229 -5074.485)" fill="#244956"/>
      <path id="Tracé_261" data-name="Tracé 261" d="M2622.59,5074.485a5.077,5.077,0,0,1,3.318,1.15,4.88,4.88,0,0,1,1.611,3.742l-.031,1.245h-3.534V5079.2a1.527,1.527,0,0,0-.51-1.36,2.054,2.054,0,0,0-1.3-.41H2607.5a2.061,2.061,0,0,0-1.3.41,1.528,1.528,0,0,0-.508,1.362v8.681a1.529,1.529,0,0,0,.508,1.36,2.059,2.059,0,0,0,1.3.41h14.648a2.054,2.054,0,0,0,1.3-.41,1.525,1.525,0,0,0,.51-1.36v-1.424h3.534l.031,1.245a4.881,4.881,0,0,1-1.611,3.741,5.079,5.079,0,0,1-3.318,1.15h-15.539a5.081,5.081,0,0,1-3.318-1.15,4.879,4.879,0,0,1-1.611-3.741v-8.324a4.877,4.877,0,0,1,1.611-3.741,5.077,5.077,0,0,1,3.318-1.15Z" transform="translate(-2497.894 -5074.485)" fill="#244956"/>
      <path id="Tracé_262" data-name="Tracé 262" d="M2717.364,5074.485v2.942h-10.337v15.165h-3.565v-15.165h-10.338v-2.942Z" transform="translate(-2558.256 -5074.485)" fill="#244956"/>
    </g>
  </g>
</svg>
