<svg width="175" height="98" viewBox="0 0 175 98" fill="none" xmlns="http://www.w3.org/2000/svg">
<rect width="175" height="98" fill="#F4F7F7"/>
<path d="M108.15 44.1085L95.9765 32.1729C95.7208 31.9222 95.3865 31.7872 95.0325 31.7872C94.6785 31.7872 94.3442 31.9222 94.0885 32.1729L80.2235 45.7474L77.0768 42.6623C76.5655 42.161 75.7198 42.161 75.2085 42.6623L66.9485 50.7415C66.6928 50.9922 66.5552 51.3199 66.5552 51.667V62.7349C66.5552 63.4484 67.1452 64.0268 67.8728 64.0268H107.206C107.934 64.0268 108.524 63.4484 108.524 62.7349V45.034C108.544 44.6676 108.406 44.3398 108.15 44.1085Z" fill="#6A7678"/>
<path d="M95.0329 34.9109L103.057 42.778L102.034 43.7807L100.559 42.3345C100.048 41.8332 99.2022 41.8332 98.6909 42.3345L93.7152 47.2129C91.5519 45.1497 88.9952 42.6816 88.0906 41.7368L95.0329 34.9109Z" fill="#F4F7F7"/>
<path d="M105.889 61.4237H69.2102V52.1876L76.1329 45.4003L79.2992 48.5047C79.5549 48.7554 79.8892 48.8904 80.2432 48.8904C80.5972 48.8904 80.9315 48.7554 81.1872 48.5047L86.2219 43.5685C87.0675 44.4555 88.8572 46.2102 92.8102 49.9702C93.0659 50.2209 93.4002 50.3365 93.7345 50.3365C94.0689 50.3365 94.4032 50.2016 94.6785 49.9509L99.6345 45.0918L101.11 46.538C101.621 47.0393 102.467 47.0393 102.978 46.538L104.945 44.6098L105.908 45.5546L105.889 61.4237Z" fill="#F4F7F7"/>
<path d="M78.9261 39.5582C81.7975 39.5582 84.1181 37.2829 84.1181 34.4677C84.1181 31.6525 81.7975 29.3965 78.9261 29.3965C76.0548 29.3965 73.7341 31.6718 73.7341 34.4677C73.7341 37.2636 76.0745 39.5582 78.9261 39.5582Z" fill="#6A7678"/>
<path d="M78.9259 31.9801C80.3222 31.9801 81.4629 33.0984 81.4629 34.4675C81.4629 35.8365 80.3222 36.9548 78.9259 36.9548C77.5296 36.9548 76.3889 35.8365 76.3889 34.4675C76.3889 33.0984 77.5296 31.9801 78.9259 31.9801Z" fill="#F4F7F7"/>
</svg>
